<svg width="1080" height="956" viewBox="0 0 1080 956" fill="none" xmlns="http://www.w3.org/2000/svg">
<g clip-path="url(#clip0_81_351)">
<rect width="1080" height="956" fill="white"/>
<rect x="259.411" y="96.0684" width="315.549" height="826.303" rx="150" transform="rotate(20.8731 259.411 96.0684)" fill="url(#paint0_linear_81_351)"/>
<rect width="315.549" height="838.343" rx="150" transform="matrix(-0.944381 0.328854 0.328854 0.944381 449.724 84.8779)" fill="url(#paint1_linear_81_351)"/>
<rect x="623.293" y="99" width="315.549" height="828.882" rx="150" transform="rotate(20.8731 623.293 99)" fill="url(#paint2_linear_81_351)"/>
<rect width="315.549" height="836.906" rx="150" transform="matrix(-0.934372 0.356299 0.356299 0.934372 815.944 86.1611)" fill="url(#paint3_linear_81_351)"/>
<path d="M254.464 497.632C264.704 497.632 272.683 500.576 278.4 506.464C284.117 512.352 286.976 520.885 286.976 532.064V588H277.632V532.32C277.632 523.616 275.413 517.088 270.976 512.736C266.624 508.299 260.651 506.08 253.056 506.08C245.035 506.08 238.763 508.427 234.24 513.12C229.717 517.728 227.456 524.811 227.456 534.368V588H218.112V532.32C218.112 523.616 215.979 517.088 211.712 512.736C207.445 508.299 201.515 506.08 193.92 506.08C185.813 506.08 179.456 508.427 174.848 513.12C170.325 517.728 168.064 524.811 168.064 534.368V588H158.592V498.4H167.68V513.376C170.155 508.256 173.824 504.373 178.688 501.728C183.552 498.997 189.312 497.632 195.968 497.632C202.965 497.632 208.939 499.125 213.888 502.112C218.923 505.013 222.549 509.109 224.768 514.4C227.328 508.939 231.168 504.8 236.288 501.984C241.493 499.083 247.552 497.632 254.464 497.632ZM417.995 497.632C429.6 497.632 438.731 501.045 445.387 507.872C452.128 514.613 455.499 524.384 455.499 537.184V588H446.155V561.632H389.835V588H380.619V537.184C380.619 524.384 383.947 514.613 390.603 507.872C397.344 501.045 406.475 497.632 417.995 497.632ZM446.155 553.44V536.288C446.155 526.304 443.68 518.795 438.731 513.76C433.782 508.64 426.87 506.08 417.995 506.08C409.12 506.08 402.208 508.64 397.259 513.76C392.31 518.795 389.835 526.304 389.835 536.288V553.44H446.155ZM605.133 514.912C596.344 509.792 586.616 506.848 575.949 506.08V588H566.477V506.08C555.981 506.763 546.21 509.707 537.165 514.912L533.709 507.488C544.802 500.917 557.261 497.632 571.085 497.632C585.165 497.632 597.666 500.917 608.589 507.488L605.133 514.912ZM726.514 588.768C717.639 588.768 709.618 586.805 702.45 582.88C695.367 578.955 689.778 573.536 685.682 566.624C681.671 559.627 679.666 551.819 679.666 543.2C679.666 534.581 681.671 526.816 685.682 519.904C689.778 512.907 695.41 507.445 702.578 503.52C709.746 499.595 717.767 497.632 726.642 497.632C733.298 497.632 739.442 498.741 745.074 500.96C750.706 503.179 755.485 506.421 759.41 510.688L753.394 516.704C746.397 509.621 737.565 506.08 726.898 506.08C719.815 506.08 713.373 507.701 707.57 510.944C701.767 514.187 697.202 518.624 693.874 524.256C690.631 529.888 689.01 536.203 689.01 543.2C689.01 550.197 690.631 556.512 693.874 562.144C697.202 567.776 701.767 572.213 707.57 575.456C713.373 578.699 719.815 580.32 726.898 580.32C737.65 580.32 746.482 576.736 753.394 569.568L759.41 575.584C755.485 579.851 750.663 583.136 744.946 585.44C739.314 587.659 733.17 588.768 726.514 588.768ZM920.402 498.4V588H911.058V546.656H854.994V588H845.522V498.4H854.994V538.336H911.058V498.4H920.402Z" fill="white"/>
</g>
<defs>
<linearGradient id="paint0_linear_81_351" x1="417.186" y1="96.0684" x2="417.186" y2="922.371" gradientUnits="userSpaceOnUse">
<stop stop-color="#C1D92E"/>
<stop offset="1" stop-color="#484E10"/>
</linearGradient>
<linearGradient id="paint1_linear_81_351" x1="157.774" y1="0" x2="157.774" y2="838.343" gradientUnits="userSpaceOnUse">
<stop stop-color="#92A322"/>
<stop offset="0.929167" stop-color="#C1D92E"/>
</linearGradient>
<linearGradient id="paint2_linear_81_351" x1="781.067" y1="99" x2="781.067" y2="927.882" gradientUnits="userSpaceOnUse">
<stop stop-color="#F9BB13"/>
<stop offset="1" stop-color="#B3C92A"/>
</linearGradient>
<linearGradient id="paint3_linear_81_351" x1="157.774" y1="0" x2="157.774" y2="836.906" gradientUnits="userSpaceOnUse">
<stop stop-color="#E2C01B"/>
<stop offset="1" stop-color="#F9BB13"/>
</linearGradient>
<clipPath id="clip0_81_351">
<rect width="1080" height="956" fill="white"/>
</clipPath>
</defs>
</svg>
