<svg width="1080" height="902" viewBox="0 0 1080 902" fill="none" xmlns="http://www.w3.org/2000/svg">
<g filter="url(#filter0_b_500_285)">
<path d="M205.966 122.346C235.483 44.9403 322.161 6.11852 399.567 35.6353L414.095 41.1753C491.501 70.6921 530.323 157.37 500.806 234.776L313.285 726.539C283.768 803.944 197.09 842.766 119.684 813.249L105.156 807.709C27.7499 778.193 -11.0719 691.515 18.4449 614.109L205.966 122.346Z" fill="url(#paint0_linear_500_285)"/>
<path d="M499.052 112.657C471.809 34.4222 386.302 -6.91504 308.067 20.3281L293.383 25.4414C215.148 52.6846 173.81 138.192 201.054 216.427L378.09 724.827C405.333 803.062 490.84 844.399 569.075 817.156L583.759 812.043C661.994 784.8 703.331 699.293 676.088 621.057L499.052 112.657Z" fill="url(#paint1_linear_500_285)"/>
<path d="M569.848 125.278C599.365 47.8718 686.043 9.05016 763.449 38.567L777.977 44.107C855.383 73.6238 894.205 160.302 864.688 237.708L676.248 731.88C646.731 809.286 560.053 848.108 482.647 818.591L468.119 813.051C390.713 783.534 351.891 696.856 381.408 619.45L569.848 125.278Z" fill="url(#paint2_linear_500_285)"/>
<path d="M869.389 112.439C839.872 35.033 753.194 -3.78871 675.789 25.7281L661.26 31.2681C583.854 60.7849 545.033 147.463 574.549 224.869L765.849 726.539C795.365 803.945 882.043 842.766 959.449 813.25L973.978 807.71C1051.38 778.193 1090.21 691.515 1060.69 614.109L869.389 112.439Z" fill="url(#paint3_linear_500_285)"/>
<path d="M254.464 374.754C264.704 374.754 272.682 377.698 278.4 383.586C284.117 389.474 286.976 398.007 286.976 409.186V465.122H277.632V409.442C277.632 400.738 275.413 394.21 270.976 389.858C266.624 385.421 260.65 383.202 253.056 383.202C245.034 383.202 238.762 385.549 234.24 390.242C229.717 394.85 227.456 401.933 227.456 411.49V465.122H218.112V409.442C218.112 400.738 215.978 394.21 211.712 389.858C207.445 385.421 201.514 383.202 193.92 383.202C185.813 383.202 179.456 385.549 174.848 390.242C170.325 394.85 168.064 401.933 168.064 411.49V465.122H158.592V375.522H167.68V390.498C170.154 385.378 173.824 381.495 178.688 378.85C183.552 376.119 189.312 374.754 195.968 374.754C202.965 374.754 208.938 376.247 213.888 379.234C218.922 382.135 222.549 386.231 224.768 391.522C227.328 386.061 231.168 381.922 236.288 379.106C241.493 376.205 247.552 374.754 254.464 374.754Z" fill="white"/>
<path d="M417.995 374.754C429.6 374.754 438.731 378.167 445.387 384.994C452.128 391.735 455.499 401.506 455.499 414.306V465.122H446.155V438.754H389.835V465.122H380.619V414.306C380.619 401.506 383.947 391.735 390.603 384.994C397.344 378.167 406.475 374.754 417.995 374.754ZM446.155 430.562V413.41C446.155 403.426 443.68 395.917 438.731 390.882C433.781 385.762 426.869 383.202 417.995 383.202C409.12 383.202 402.208 385.762 397.259 390.882C392.309 395.917 389.835 403.426 389.835 413.41V430.562H446.155Z" fill="white"/>
<path d="M605.133 392.034C596.343 386.914 586.615 383.97 575.949 383.202V465.122H566.477V383.202C555.981 383.885 546.21 386.829 537.165 392.034L533.709 384.61C544.802 378.039 557.261 374.754 571.085 374.754C585.165 374.754 597.666 378.039 608.589 384.61L605.133 392.034Z" fill="white"/>
<path d="M726.514 465.89C717.639 465.89 709.618 463.927 702.45 460.002C695.367 456.077 689.778 450.658 685.682 443.746C681.671 436.749 679.666 428.941 679.666 420.322C679.666 411.703 681.671 403.938 685.682 397.026C689.778 390.029 695.41 384.567 702.578 380.642C709.746 376.717 717.767 374.754 726.642 374.754C733.298 374.754 739.442 375.863 745.074 378.082C750.706 380.301 755.485 383.543 759.41 387.81L753.394 393.826C746.397 386.743 737.564 383.202 726.898 383.202C719.815 383.202 713.372 384.823 707.57 388.066C701.767 391.309 697.202 395.746 693.874 401.378C690.631 407.01 689.01 413.325 689.01 420.322C689.01 427.319 690.631 433.634 693.874 439.266C697.202 444.898 701.767 449.335 707.57 452.578C713.372 455.821 719.815 457.442 726.898 457.442C737.65 457.442 746.482 453.858 753.394 446.69L759.41 452.706C755.485 456.973 750.663 460.258 744.946 462.562C739.314 464.781 733.17 465.89 726.514 465.89Z" fill="white"/>
<path d="M920.402 375.522V465.122H911.058V423.778H854.994V465.122H845.522V375.522H854.994V415.458H911.058V375.522H920.402Z" fill="white"/>
</g>
<defs>
<filter id="filter0_b_500_285" x="-39" y="-4" width="1157.13" height="909.036" filterUnits="userSpaceOnUse" color-interpolation-filters="sRGB">
<feFlood flood-opacity="0" result="BackgroundImageFix"/>
<feGaussianBlur in="BackgroundImageFix" stdDeviation="2"/>
<feComposite in2="SourceAlpha" operator="in" result="effect1_backgroundBlur_500_285"/>
<feBlend mode="normal" in="SourceGraphic" in2="effect1_backgroundBlur_500_285" result="shape"/>
</filter>
<linearGradient id="paint0_linear_500_285" x1="406.831" y1="38.4053" x2="112.42" y2="810.479" gradientUnits="userSpaceOnUse">
<stop stop-color="#C1D92E"/>
<stop offset="1" stop-color="#484E10"/>
</linearGradient>
<linearGradient id="paint1_linear_500_285" x1="300.725" y1="22.8848" x2="576.417" y2="814.599" gradientUnits="userSpaceOnUse">
<stop stop-color="#92A322"/>
<stop offset="0.929167" stop-color="#C1D92E"/>
</linearGradient>
<linearGradient id="paint2_linear_500_285" x1="770.713" y1="41.337" x2="475.383" y2="815.821" gradientUnits="userSpaceOnUse">
<stop stop-color="#F9BB13"/>
<stop offset="1" stop-color="#B3C92A"/>
</linearGradient>
<linearGradient id="paint3_linear_500_285" x1="668.524" y1="28.4981" x2="966.713" y2="810.48" gradientUnits="userSpaceOnUse">
<stop stop-color="#E2C01B"/>
<stop offset="1" stop-color="#F9BB13"/>
</linearGradient>
</defs>
</svg>
